<svg xmlns="http://www.w3.org/2000/svg" viewBox="0 0 240 140" fill="none">
  <defs>
    <linearGradient id="bg-lb" x1="0" y1="0" x2="1" y2="1">
      <stop offset="0%" stop-color="#0C1A2E"/>
      <stop offset="100%" stop-color="#0F172A"/>
    </linearGradient>
  </defs>
  <rect width="240" height="140" fill="url(#bg-lb)" rx="10"/>

  <!-- Internet clients -->
  <circle cx="28" cy="70" r="18" fill="#1E293B" stroke="#475569" stroke-width="1.5"/>
  <circle cx="28" cy="70" r="10" fill="none" stroke="#64748B" stroke-width="1"/>
  <path d="M 18 70 Q 28 58 38 70 Q 28 82 18 70" stroke="#64748B" stroke-width="0.8" fill="none"/>
  <line x1="18" y1="70" x2="38" y2="70" stroke="#64748B" stroke-width="0.8"/>
  <text x="28" y="98" font-family="Inter,sans-serif" font-size="7" fill="#64748B" text-anchor="middle">Internet</text>

  <!-- Arrow to LB -->
  <path d="M 48 70 L 78 70" stroke="#2563EB" stroke-width="2"/>
  <polygon points="75,66 83,70 75,74" fill="#2563EB"/>

  <!-- Load Balancer (center) -->
  <rect x="80" y="44" width="60" height="52" rx="8" fill="#1E293B" stroke="#2563EB" stroke-width="2"/>
  <circle cx="110" cy="60" r="12" fill="#1D4ED8" opacity="0.25"/>
  <path d="M 98 62 L 105 52 L 122 62" stroke="#60A5FA" stroke-width="2" fill="none" stroke-linecap="round"/>
  <path d="M 94 72 L 110 66 L 126 72" stroke="#60A5FA" stroke-width="1.5" fill="none" stroke-linecap="round"/>
  <text x="110" y="86" font-family="Inter,sans-serif" font-size="8" fill="#93C5FD" text-anchor="middle">Load</text>
  <text x="110" y="97" font-family="Inter,sans-serif" font-size="8" fill="#93C5FD" text-anchor="middle">Balancer</text>

  <!-- Arrows to servers -->
  <path d="M 142 58 L 168 42" stroke="#059669" stroke-width="1.5"/>
  <polygon points="166,39 172,44 166,49" fill="#059669" opacity="0.8" transform="rotate(-35,168,44)"/>
  <path d="M 142 70 L 168 70" stroke="#059669" stroke-width="1.5"/>
  <polygon points="165,66 173,70 165,74" fill="#059669"/>
  <path d="M 142 82 L 168 98" stroke="#059669" stroke-width="1.5"/>

  <!-- Server nodes -->
  <rect x="170" y="25" width="54" height="30" rx="6" fill="#1E293B" stroke="#059669" stroke-width="1.5"/>
  <rect x="177" y="32" width="40" height="6" rx="2" fill="#065F46" opacity="0.8"/>
  <rect x="177" y="41" width="28" height="6" rx="2" fill="#065F46" opacity="0.5"/>
  <circle cx="212" cy="35" r="2.5" fill="#10B981"/>
  <text x="197" y="66" font-family="Inter,sans-serif" font-size="7" fill="#6EE7B7" text-anchor="middle">Server A</text>

  <rect x="170" y="56" width="54" height="30" rx="6" fill="#1E293B" stroke="#059669" stroke-width="1.5"/>
  <rect x="177" y="63" width="40" height="6" rx="2" fill="#065F46" opacity="0.8"/>
  <rect x="177" y="72" width="28" height="6" rx="2" fill="#065F46" opacity="0.5"/>
  <circle cx="212" cy="66" r="2.5" fill="#10B981"/>
  <text x="197" y="97" font-family="Inter,sans-serif" font-size="7" fill="#6EE7B7" text-anchor="middle">Server B</text>

  <rect x="170" y="87" width="54" height="30" rx="6" fill="#1E293B" stroke="#059669" stroke-width="1.5"/>
  <rect x="177" y="94" width="40" height="6" rx="2" fill="#065F46" opacity="0.8"/>
  <rect x="177" y="103" width="28" height="6" rx="2" fill="#065F46" opacity="0.5"/>
  <circle cx="212" cy="97" r="2.5" fill="#10B981"/>
  <text x="197" y="128" font-family="Inter,sans-serif" font-size="7" fill="#6EE7B7" text-anchor="middle">Server C</text>

  <!-- Health checks -->
  <path d="M 200 25 Q 215 18 224 25" stroke="#059669" stroke-width="0.8" fill="none" stroke-dasharray="2,2" opacity="0.5"/>
</svg>
